# xmcd
#
# Track frame offsets:
#	150
#	20086
#	36898
#	51485
#	69561
#	89425
#	105467
#	123463
#	138123
#	152751
#	169358
#	183590
#	197494
#	216825
#	232452
#	261771
#
# Disc length: 3505 seconds
#
# Revision: 2
# Processed by: cddbd v1.5.2PL0 Copyright (c) Steve Scherf et al.
# Submitted via: audiograbber 1.83.01
#
DISCID=f00daf10
DTITLE=Various Artist - CB60340
DYEAR=2005
DGENRE=Karaoke
TTITLE0=Montgomery Gentry - Something To Be Proud Of
TTITLE1=Chesney, Kenny - Keg In The Closet
TTITLE2=Amanda Wilkenson - No More Me And You
TTITLE3=Toby Keith - As Good As I Once Was
TTITLE4=Brad Paisley - Alcohol
TTITLE5=Catherine Britt  and Elton John - Where We Both Say Goodbye
TTITLE6=Craig Morgan - Redneck Yacht Club
TTITLE7=Erika Jo - I Break Things
TTITLE8=Gretchen Wilson - When It Rains
TTITLE9=Blaine Larsen - Best Man, The
TTITLE10=Pat Green - Somewhere Between Texas And Mexico
TTITLE11=Tori Baxley - Half A Man
TTITLE12=Billy Currington - Must Be Doin' Somethin' Right
TTITLE13=Brooks and Dunn - Play Something Country
TTITLE14=Rhonda Vincent and The Rage - I've Forgotten You
TTITLE15=Rhonda Vincent - do not copy this track
EXTD=
EXTT0=
EXTT1=
EXTT2=
EXTT3=
EXTT4=
EXTT5=
EXTT6=
EXTT7=
EXTT8=
EXTT9=
EXTT10=
EXTT11=
EXTT12=
EXTT13=
EXTT14=
EXTT15=
PLAYORDER=
